<?xml version="1.0" standalone="no"?>
<!DOCTYPE svg PUBLIC "-//W3C//DTD SVG 20010904//EN"
 "http://www.w3.org/TR/2001/REC-SVG-20010904/DTD/svg10.dtd">
<svg version="1.0" xmlns="http://www.w3.org/2000/svg"
 width="500.000000pt" height="500.000000pt" viewBox="0 0 500.000000 500.000000"
 preserveAspectRatio="xMidYMid meet">
<metadata>
Created by potrace 1.14, written by Peter Selinger 2001-2017
</metadata>
<g transform="translate(0.000000,500.000000) scale(0.100000,-0.100000)"
fill="#000000" stroke="none">
<path d="M2617 4964 c-3 -4 -52 -7 -109 -9 -57 -1 -125 -6 -153 -9 -27 -4 -75
-8 -105 -10 -30 -2 -75 -9 -100 -15 -25 -5 -67 -13 -95 -16 -27 -4 -67 -13
-87 -20 -21 -7 -35 -8 -32 -3 4 6 -3 5 -14 -1 -11 -6 -27 -11 -36 -11 -8 0
-25 -4 -38 -9 -13 -5 -27 -10 -33 -11 -5 -1 -15 -6 -21 -11 -6 -5 -28 -11 -49
-15 -70 -11 -79 -14 -134 -41 -31 -16 -58 -30 -61 -33 -6 -7 -61 -32 -75 -36
-73 -16 -132 -36 -141 -49 -6 -8 -14 -12 -17 -8 -4 3 -7 1 -7 -5 0 -7 -4 -12
-10 -12 -5 0 -40 -19 -77 -42 -38 -22 -87 -51 -110 -64 -39 -20 -66 -40 -203
-145 -25 -19 -65 -53 -90 -77 -25 -24 -57 -50 -71 -59 -15 -9 -34 -27 -42 -42
-9 -14 -32 -43 -52 -65 -19 -21 -35 -43 -35 -49 0 -6 -3 -8 -6 -4 -3 3 -20
-11 -37 -31 -18 -20 -35 -38 -39 -40 -5 -2 -8 -10 -8 -18 0 -8 -4 -14 -9 -14
-5 0 -16 -16 -25 -35 -9 -19 -21 -35 -26 -35 -6 0 -9 -3 -8 -7 3 -8 -20 -39
-59 -80 -12 -13 -20 -23 -17 -23 3 0 -6 -14 -21 -31 -14 -18 -35 -50 -47 -73
-11 -22 -34 -61 -52 -86 -17 -25 -36 -56 -43 -70 -20 -44 -93 -235 -93 -243 0
-5 -6 -23 -14 -40 -19 -41 -44 -119 -51 -154 -3 -16 -7 -39 -10 -53 -6 -28
-13 -75 -21 -135 -6 -45 -12 -80 -14 -80 -15 0 -21 -587 -7 -715 11 -98 39
-240 48 -240 5 0 6 -6 3 -14 -3 -8 -1 -17 5 -20 6 -4 8 -13 4 -21 -3 -8 -1
-15 5 -15 6 0 9 -7 8 -16 -1 -9 4 -39 11 -68 8 -28 16 -58 18 -66 15 -66 29
-105 87 -240 6 -14 11 -28 10 -32 -1 -5 3 -8 8 -8 6 0 10 -5 10 -12 0 -17 42
-108 51 -108 3 0 12 -13 19 -30 7 -16 17 -30 22 -30 5 0 7 -4 4 -9 -3 -5 1
-14 9 -21 8 -7 15 -19 15 -26 0 -8 4 -14 10 -14 5 0 9 -3 8 -8 -4 -10 85 -140
127 -185 19 -21 35 -42 35 -48 0 -5 5 -9 10 -9 6 0 10 -5 10 -10 0 -15 17 -34
80 -94 29 -28 72 -71 95 -95 22 -24 51 -56 65 -70 14 -15 41 -38 60 -51 32
-22 75 -58 104 -86 6 -6 34 -26 63 -46 29 -20 50 -38 48 -40 -3 -3 19 -15 48
-28 28 -13 54 -26 57 -30 3 -3 26 -18 52 -33 26 -15 53 -33 60 -40 25 -22 161
-96 187 -100 9 -2 36 -13 61 -24 42 -20 143 -54 165 -57 6 -1 12 -3 15 -6 6
-6 67 -30 90 -35 8 -2 15 -4 15 -5 0 -3 39 -9 68 -12 15 -1 27 -5 27 -8 0 -4
6 -8 13 -10 27 -6 1052 -10 1066 -4 9 4 27 8 41 10 14 2 40 6 59 9 19 4 52 9
73 11 22 3 63 16 91 28 29 13 90 38 137 54 47 17 99 37 115 45 17 8 72 34 123
58 50 23 92 46 92 51 0 5 4 7 8 4 5 -3 18 3 30 14 11 11 32 22 46 26 14 3 26
10 26 15 0 5 11 14 25 19 14 5 25 14 25 19 0 7 18 16 50 25 3 0 14 10 26 22
12 12 40 32 63 44 22 13 41 30 41 37 0 7 4 13 9 13 5 0 16 6 23 13 7 6 26 19
42 27 16 8 41 28 55 44 14 15 60 64 101 108 134 144 137 147 201 236 20 28 37
41 46 38 8 -3 21 -6 29 -6 9 0 13 -4 10 -9 -9 -15 41 -22 68 -10 15 7 31 28
41 55 9 24 21 44 26 44 5 0 9 8 9 18 0 11 8 26 18 36 17 14 19 32 18 143 -1
73 4 137 10 152 6 14 25 58 43 97 17 39 31 78 31 87 0 9 4 17 10 17 5 0 9 3 8
8 0 4 2 15 5 25 16 41 20 53 23 62 1 6 14 53 27 105 14 52 28 102 31 110 8 23
22 112 30 185 2 22 9 74 16 115 9 53 11 136 6 285 -4 116 -7 220 -7 232 1 13
-6 55 -15 95 -9 40 -18 96 -20 123 -3 28 -12 75 -21 105 -9 30 -16 58 -15 62
1 5 -7 34 -18 67 -11 32 -23 69 -25 81 -3 13 -8 26 -12 29 -5 3 -9 15 -11 26
-3 23 -22 70 -69 173 -18 40 -33 75 -33 77 0 3 -18 34 -40 69 -42 66 -47 85
-30 116 9 16 4 27 -25 59 -32 35 -35 43 -32 90 1 28 -1 51 -5 51 -4 0 -7 3 -6
8 3 14 -27 67 -52 90 -15 13 -34 21 -47 19 -19 -4 -38 14 -36 33 1 6 -30 36
-34 33 -21 -19 -143 35 -143 63 0 6 -30 38 -66 70 -36 33 -77 70 -92 84 -48
45 -171 140 -181 140 -5 0 -11 4 -13 9 -4 11 -157 111 -170 111 -5 0 -7 4 -4
8 3 5 -12 14 -32 21 -20 8 -45 20 -54 29 -10 8 -18 12 -18 8 0 -3 -11 1 -24
10 -14 8 -26 15 -28 14 -4 -2 -62 23 -68 30 -10 11 -119 60 -134 60 -8 0 -18
5 -21 10 -4 6 -11 8 -16 5 -5 -4 -9 -1 -9 4 0 6 -3 10 -7 10 -5 -1 -10 0 -13
1 -3 1 -12 3 -20 5 -8 1 -45 13 -83 25 -37 12 -73 23 -80 24 -6 2 -19 6 -27 9
-8 3 -42 11 -75 18 -33 6 -67 13 -75 14 -8 2 -15 4 -15 5 0 1 -8 3 -17 5 -9 2
-40 8 -70 15 -29 6 -97 13 -152 16 -54 2 -102 6 -106 9 -4 2 -10 2 -13 -1z"/>
</g>
</svg>
